<svg width="31" height="31" viewBox="0 0 31 31" fill="none" xmlns="http://www.w3.org/2000/svg">
<g filter="url(#filter0_d_0_774)">
<path fill-rule="evenodd" clip-rule="evenodd" d="M17.2823 3.10374C14.0382 -0.137698 9.22953 -0.604321 6.56282 2.06526C3.89473 4.73345 4.36133 9.5423 7.59988 12.7851C8.46386 13.6491 9.45937 14.3096 10.5103 14.7831C10.855 12.7796 11.8436 10.8535 13.3445 9.27229C12.8475 9.09506 12.3379 8.94552 11.8062 8.80013C8.6577 7.93612 7.09312 5.30946 6.72759 2.23003C7.02991 2.59359 7.30517 2.97493 7.57962 3.35514C8.11211 4.09283 8.64154 4.8263 9.35968 5.41746C10.4768 6.33735 11.7031 6.69244 13.0446 7.08092C13.0964 7.09592 13.1484 7.11097 13.2005 7.1261C13.836 7.31026 14.3885 7.58303 14.8953 7.9015C16.2272 6.9281 17.7295 6.28009 19.2802 6.01286C18.8081 4.96192 18.1463 3.96775 17.2823 3.10374ZM11.7966 15.553C12.0029 13.5467 12.9748 11.5846 14.5325 10.0269C17.7766 6.78548 22.5852 6.31748 25.2519 8.98844C27.92 11.6566 27.4548 16.4655 24.2121 19.7083C22.6545 21.266 20.6925 22.238 18.6862 22.4457C18.419 22.472 18.1546 22.4859 17.8956 22.4859C16.1705 22.4859 14.6294 21.8808 13.4941 20.7454C12.187 19.4397 11.5833 17.5953 11.7966 15.553ZM16.5415 17.1993C17.6049 16.3879 18.7555 16.0667 20.0071 15.7247C23.1557 14.8607 24.7189 12.234 25.0858 9.1546C24.786 9.51613 24.5128 9.89488 24.2403 10.2725C23.7062 11.0128 23.1753 11.7488 22.4537 12.342C21.3331 13.2634 20.104 13.6191 18.7565 14.0091L18.7565 14.0091L18.6129 14.0507C15.5322 14.9451 14.0091 17.5496 13.6574 20.5806C13.9609 20.216 14.2389 19.8375 14.5155 19.4609L14.5155 19.4609C15.1158 18.6435 15.7092 17.8354 16.5415 17.1993Z" fill="#0E8784"/>
</g>
<defs>
<filter id="filter0_d_0_774" x="0.830566" y="0.332031" width="30.1539" height="30.1543" filterUnits="userSpaceOnUse" color-interpolation-filters="sRGB">
<feFlood flood-opacity="0" result="BackgroundImageFix"/>
<feColorMatrix in="SourceAlpha" type="matrix" values="0 0 0 0 0 0 0 0 0 0 0 0 0 0 0 0 0 0 127 0" result="hardAlpha"/>
<feOffset dy="4"/>
<feGaussianBlur stdDeviation="2"/>
<feComposite in2="hardAlpha" operator="out"/>
<feColorMatrix type="matrix" values="0 0 0 0 0 0 0 0 0 0 0 0 0 0 0 0 0 0 0.25 0"/>
<feBlend mode="normal" in2="BackgroundImageFix" result="effect1_dropShadow_0_774"/>
<feBlend mode="normal" in="SourceGraphic" in2="effect1_dropShadow_0_774" result="shape"/>
</filter>
</defs>
</svg>
