<svg width="196" height="31" viewBox="0 0 196 31" fill="none" xmlns="http://www.w3.org/2000/svg">
<g filter="url(#filter0_d_0_751)">
<path fill-rule="evenodd" clip-rule="evenodd" d="M43.8319 21.5112C43.8319 21.9791 43.5962 22.2131 43.1248 22.2131H34.82C34.6194 22.2131 34.4564 22.1546 34.331 22.0376C34.2056 21.9206 34.1429 21.7554 34.1429 21.5418C34.1429 21.3587 34.1856 21.2112 34.2708 21.0993C34.3561 20.9874 34.489 20.8959 34.6695 20.8247L35.3164 20.6263C35.4769 20.5754 35.6023 20.4788 35.6926 20.3364C35.7828 20.194 35.828 19.9906 35.828 19.7261V10.9073C35.828 10.7649 35.7929 10.6454 35.7227 10.5487C35.6524 10.4521 35.5221 10.3631 35.3315 10.2817L34.4589 9.99185C34.2282 9.87996 34.0627 9.76044 33.9624 9.6333C33.8621 9.50615 33.8119 9.35103 33.8119 9.16794C33.8119 8.98485 33.8746 8.83482 34 8.71785L34.0493 8.67672C34.1694 8.58717 34.326 8.54239 34.5191 8.54239H35.8393L35.8289 8.45323C35.8007 8.27491 35.7302 8.10374 35.6173 7.93972C35.4669 7.72103 35.2964 7.47436 35.1058 7.19973C34.9152 6.9251 34.7447 6.59706 34.5943 6.21562C34.4438 5.83419 34.3686 5.36375 34.3686 4.80431C34.3686 3.47182 34.82 2.40634 35.7227 1.60787C36.6254 0.809393 37.9092 0.410156 39.5742 0.410156C40.6474 0.410156 41.5375 0.583074 42.2446 0.92891C42.9517 1.27475 43.4808 1.73501 43.8319 2.30971C44.1829 2.88441 44.3584 3.51251 44.3584 4.19401C44.3584 4.99757 44.1503 5.60024 43.7341 6.00202C43.3178 6.4038 42.7837 6.60469 42.1318 6.60469C41.4096 6.60469 40.8279 6.37074 40.3866 5.90285C39.9453 5.43495 39.7246 4.81448 39.7246 4.04143V2.68352C39.7246 2.32751 39.6544 2.06559 39.514 1.89776C39.3736 1.72993 39.1579 1.64601 38.867 1.64601C38.4959 1.64601 38.2151 1.77316 38.0245 2.02745C37.834 2.28174 37.7387 2.64792 37.7387 3.12599C37.7387 3.61422 37.8515 4.07195 38.0772 4.49916C38.3029 4.92637 38.5812 5.3256 38.9122 5.69687C39.2432 6.06813 39.5742 6.42414 39.9051 6.76489C40.2361 7.10564 40.5145 7.44131 40.7401 7.77189L40.8045 7.87098C40.9263 8.06902 41.0076 8.26615 41.0482 8.46236L41.0619 8.54239H43.2903C43.5209 8.54239 43.699 8.5907 43.8243 8.68733C43.9497 8.78397 44.0124 8.934 44.0124 9.13743C44.0124 9.44258 43.882 9.69178 43.6212 9.88505C43.3605 10.0783 42.9492 10.1749 42.3876 10.1749H41.3194V19.6803C41.3194 19.9651 41.362 20.1838 41.4473 20.3364C41.5325 20.489 41.6704 20.5805 41.861 20.611L43.1549 20.8094C43.3855 20.8399 43.556 20.9137 43.6664 21.0306C43.7767 21.1476 43.8319 21.3078 43.8319 21.5112ZM14.2084 21.8622C13.3057 22.2995 12.2526 22.5182 11.049 22.5182C9.77516 22.5182 8.63426 22.2487 7.62625 21.7096C6.61824 21.1705 5.82336 20.3898 5.24162 19.3676C4.65989 18.3453 4.36902 17.1018 4.36902 15.6371C4.36902 14.2233 4.67242 12.9594 5.27924 11.8456C5.88605 10.7318 6.73107 9.85199 7.81431 9.20609C8.89754 8.56019 10.1613 8.23724 11.6056 8.23724C12.8393 8.23724 13.8799 8.42033 14.7275 8.78651C15.575 9.15269 16.2219 9.64855 16.6683 10.2741C17.1146 10.8997 17.3377 11.599 17.3377 12.372C17.3377 13.1857 17.1046 13.824 16.6382 14.2868C16.1718 14.7496 15.5374 14.981 14.735 14.981C13.9125 14.981 13.2882 14.7445 12.8619 14.2716C12.4356 13.7986 12.2225 13.1501 12.2225 12.3262V11.3498C12.2225 10.8514 12.1322 10.475 11.9517 10.2207C11.7711 9.96642 11.5154 9.83927 11.1844 9.83927C10.8534 9.83927 10.555 9.97405 10.2892 10.2436C10.0234 10.5131 9.81779 10.9175 9.67236 11.4566C9.52692 11.9957 9.45421 12.6619 9.45421 13.4553C9.45421 14.5945 9.62221 15.5507 9.95821 16.3237C10.2942 17.0967 10.7531 17.6765 11.3348 18.063C11.9166 18.4496 12.5785 18.6428 13.3208 18.6428C14.063 18.6428 14.6848 18.5335 15.1863 18.3148C15.6878 18.0961 16.074 17.7274 16.3448 17.2086C16.4952 17.0662 16.6131 16.9747 16.6983 16.934C16.7836 16.8933 16.8663 16.873 16.9466 16.873C17.0469 16.8831 17.1296 16.9315 17.1948 17.0179C17.26 17.1044 17.2876 17.2391 17.2776 17.4222C17.1973 18.4191 16.8914 19.2989 16.3598 20.0618C15.8282 20.8247 15.1111 21.4248 14.2084 21.8622ZM29.5016 21.557C28.3732 22.1775 27.0618 22.4877 25.5673 22.4877C24.113 22.4877 22.8367 22.1851 21.7384 21.5799C20.6401 20.9747 19.7851 20.1381 19.1732 19.07C18.5614 18.002 18.2555 16.7662 18.2555 15.3625C18.2555 14.0198 18.5764 12.8119 19.2184 11.7388C19.8603 10.6657 20.7479 9.81384 21.8813 9.1832C23.0147 8.55256 24.3186 8.23724 25.793 8.23724C27.2574 8.23724 28.5362 8.54239 29.6295 9.15269C30.7227 9.76299 31.5753 10.6072 32.1871 11.6854C32.7989 12.7636 33.1048 14.0096 33.1048 15.4235C33.1048 16.7662 32.7864 17.969 32.1495 19.0319C31.5126 20.0948 30.6299 20.9365 29.5016 21.557ZM26.7107 20.9009C26.3998 20.962 26.0964 20.8246 25.8005 20.489C25.5046 20.1533 25.2238 19.5888 24.958 18.7954C24.6922 18.002 24.439 16.9594 24.1982 15.6676C23.9675 14.3758 23.8372 13.3129 23.8071 12.4788C23.777 11.6447 23.8372 11.0141 23.9876 10.5869C24.1381 10.1597 24.3687 9.91047 24.6797 9.83927C24.9906 9.77824 25.294 9.91556 25.5899 10.2512C25.8858 10.5869 26.1691 11.1514 26.4399 11.9448C26.7107 12.7382 26.9665 13.7808 27.2072 15.0726C27.4479 16.3644 27.5808 17.4299 27.6059 18.269C27.631 19.1082 27.5658 19.7414 27.4103 20.1686C27.2549 20.5958 27.0217 20.8399 26.7107 20.9009ZM53.6261 22.2131C54.0975 22.2131 54.3332 21.9791 54.3332 21.5112C54.3332 21.3078 54.2781 21.1476 54.1677 21.0306C54.0574 20.9137 53.8869 20.8399 53.6562 20.8094L52.3623 20.611C52.1718 20.5805 52.0339 20.489 51.9486 20.3364C51.8634 20.1838 51.8207 19.9651 51.8207 19.6803V10.1749H52.8889C53.4506 10.1749 53.8618 10.0783 54.1226 9.88505C54.3834 9.69178 54.5138 9.44258 54.5138 9.13743C54.5138 8.934 54.4511 8.78397 54.3257 8.68733C54.2003 8.5907 54.0223 8.54239 53.7916 8.54239H51.5633L51.5495 8.46236C51.5089 8.26615 51.4277 8.06902 51.3058 7.87098L51.2415 7.77189C51.0158 7.44131 50.7375 7.10564 50.4065 6.76489C50.0755 6.42414 49.7445 6.06813 49.4135 5.69687C49.0826 5.3256 48.8042 4.92637 48.5785 4.49916C48.3529 4.07195 48.24 3.61422 48.24 3.12599C48.24 2.64792 48.3353 2.28174 48.5259 2.02745C48.7165 1.77316 48.9973 1.64601 49.3684 1.64601C49.6593 1.64601 49.8749 1.72993 50.0153 1.89776C50.1558 2.06559 50.226 2.32751 50.226 2.68352V4.04143C50.226 4.81448 50.4466 5.43495 50.8879 5.90285C51.3293 6.37074 51.911 6.60469 52.6332 6.60469C53.2851 6.60469 53.8192 6.4038 54.2354 6.00202C54.6517 5.60024 54.8598 4.99757 54.8598 4.19401C54.8598 3.51251 54.6843 2.88441 54.3332 2.30971C53.9822 1.73501 53.4531 1.27475 52.746 0.92891C52.0389 0.583074 51.1487 0.410156 50.0755 0.410156C48.4105 0.410156 47.1267 0.809393 46.224 1.60787C45.3213 2.40634 44.87 3.47182 44.87 4.80431C44.87 5.36375 44.9452 5.83419 45.0956 6.21562C45.2461 6.59706 45.4166 6.9251 45.6072 7.19973C45.7977 7.47436 45.9683 7.72103 46.1187 7.93972C46.2315 8.10374 46.3021 8.27491 46.3303 8.45323L46.3406 8.54239H45.0204C44.8273 8.54239 44.6707 8.58717 44.5506 8.67672L44.5014 8.71785C44.376 8.83482 44.3133 8.98485 44.3133 9.16794C44.3133 9.35103 44.3635 9.50615 44.4638 9.6333C44.5641 9.76044 44.7296 9.87996 44.9602 9.99185L45.8328 10.2817C46.0234 10.3631 46.1538 10.4521 46.224 10.5487C46.2942 10.6454 46.3293 10.7649 46.3293 10.9073V19.7261C46.3293 19.9906 46.2842 20.194 46.1939 20.3364C46.1037 20.4788 45.9783 20.5754 45.8178 20.6263L45.1709 20.8247C44.9903 20.8959 44.8574 20.9874 44.7722 21.0993C44.6869 21.2112 44.6443 21.3587 44.6443 21.5418C44.6443 21.7554 44.707 21.9206 44.8324 22.0376C44.9577 22.1546 45.1207 22.2131 45.3213 22.2131H53.6261ZM65.4063 21.7706C64.4334 22.269 63.31 22.5182 62.0362 22.5182C60.632 22.5182 59.3984 22.2258 58.3352 21.6409C57.272 21.0561 56.442 20.2372 55.8452 19.1845C55.2485 18.1317 54.9501 16.9137 54.9501 15.5303C54.9501 14.0758 55.2384 12.8018 55.8152 11.7083C56.3919 10.6149 57.2269 9.76299 58.3201 9.15269C59.4134 8.54239 60.7273 8.23724 62.2619 8.23724C63.5658 8.23724 64.6892 8.49407 65.632 9.00774C66.5748 9.52141 67.2995 10.2182 67.806 11.098C68.3125 11.9779 68.5657 12.9569 68.5657 14.0351C68.5657 14.503 68.4404 14.8717 68.1896 15.1412L68.1298 15.2011C67.8827 15.4307 67.5415 15.5456 67.1064 15.5456H60.2288L60.2435 15.616C60.426 16.4536 60.7377 17.1244 61.1787 17.6282C61.9309 18.4877 62.9339 18.9175 64.1877 18.9175C64.9901 18.9175 65.6997 18.7344 66.3165 18.3682C66.9334 18.002 67.3471 17.4934 67.5577 16.8425C67.6781 16.7102 67.7859 16.6212 67.8812 16.5754C67.9765 16.5297 68.0592 16.5068 68.1294 16.5068C68.2297 16.5068 68.315 16.5475 68.3852 16.6288C68.4554 16.7102 68.4905 16.8475 68.4905 17.0408C68.4905 18.0376 68.2197 18.9505 67.6781 19.7795C67.1365 20.6085 66.3792 21.2722 65.4063 21.7706ZM60.0718 14.3225C60.0575 14.0884 60.0503 13.8451 60.0503 13.5926C60.0503 12.6365 60.1205 11.8838 60.2609 11.3345C60.4014 10.7852 60.5819 10.3962 60.8026 10.1673C61.0232 9.93845 61.2689 9.82401 61.5398 9.82401C61.8908 9.82401 62.2193 10.1241 62.5252 10.7242C62.8311 11.3243 62.9841 12.3212 62.9841 13.7147C62.9841 14.1419 62.7935 14.3555 62.4124 14.3555H60.0737L60.0718 14.3225ZM79.7893 21.7706C78.8164 22.269 77.693 22.5182 76.4192 22.5182C75.015 22.5182 73.7813 22.2258 72.7181 21.6409C71.655 21.0561 70.825 20.2372 70.2282 19.1845C69.6314 18.1317 69.333 16.9137 69.333 15.5303C69.333 14.0758 69.6214 12.8018 70.1981 11.7083C70.7748 10.6149 71.6098 9.76299 72.7031 9.15269C73.7964 8.54239 75.1103 8.23724 76.6449 8.23724C77.9488 8.23724 79.0721 8.49407 80.0149 9.00774C80.9577 9.52141 81.6824 10.2182 82.1889 11.098C82.6954 11.9779 82.9487 12.9569 82.9487 14.0351C82.9487 14.503 82.8233 14.8717 82.5726 15.1412L82.5127 15.2011C82.2656 15.4307 81.9245 15.5456 81.4893 15.5456H74.6117L74.6265 15.616C74.8089 16.4536 75.1207 17.1244 75.5616 17.6282C76.3139 18.4877 77.3169 18.9175 78.5706 18.9175C79.373 18.9175 80.0826 18.7344 80.6995 18.3682C81.3163 18.002 81.7301 17.4934 81.9407 16.8425C82.061 16.7102 82.1689 16.6212 82.2641 16.5754C82.3594 16.5297 82.4422 16.5068 82.5124 16.5068C82.6127 16.5068 82.6979 16.5475 82.7682 16.6288C82.8384 16.7102 82.8735 16.8475 82.8735 17.0408C82.8735 18.0376 82.6027 18.9505 82.061 19.7795C81.5194 20.6085 80.7622 21.2722 79.7893 21.7706ZM74.4547 14.3225C74.4404 14.0884 74.4333 13.8451 74.4333 13.5926C74.4333 12.6365 74.5035 11.8838 74.6439 11.3345C74.7843 10.7852 74.9649 10.3962 75.1855 10.1673C75.4062 9.93845 75.6519 9.82401 75.9227 9.82401C76.2738 9.82401 76.6022 10.1241 76.9082 10.7242C77.2141 11.3243 77.367 12.3212 77.367 13.7147C77.367 14.1419 77.1765 14.3555 76.7953 14.3555H74.4567L74.4547 14.3225ZM92.6151 22.0224C92.4897 22.1495 92.3066 22.2131 92.0659 22.2131H84.5434C84.3228 22.2131 84.1498 22.1521 84.0244 22.03C83.899 21.9079 83.8363 21.7401 83.8363 21.5265C83.8363 21.3637 83.874 21.229 83.9492 21.1222C84.0244 21.0154 84.1272 20.9162 84.2576 20.8247L84.6036 20.6873C84.734 20.6263 84.8243 20.5297 84.8744 20.3974C84.9246 20.2652 84.9497 20.0465 84.9497 19.7414V11.9906C84.9497 11.7465 84.9221 11.571 84.8669 11.4642C84.8118 11.3574 84.719 11.2735 84.5886 11.2124L84.1974 11.1667C84.057 11.0853 83.9542 10.9988 83.889 10.9073C83.8238 10.8158 83.7912 10.6988 83.7912 10.5564C83.7912 10.3936 83.8414 10.2487 83.9417 10.1215C84.042 9.99439 84.2125 9.88505 84.4532 9.7935L88.7259 8.55764C88.9767 8.45593 89.1873 8.38473 89.3578 8.34404C89.5283 8.30335 89.6738 8.28301 89.7941 8.28301C89.9646 8.28301 90.0925 8.34404 90.1778 8.4661L90.2052 8.51037C90.2755 8.63795 90.3241 8.84189 90.3508 9.12217L90.4653 11.493L90.4914 11.4055C90.5423 11.2403 90.5982 11.0819 90.6592 10.9302C91.0253 10.0198 91.5093 9.3434 92.1111 8.90094C92.7129 8.45847 93.3698 8.23724 94.0819 8.23724C94.9445 8.23724 95.6065 8.52713 96.0679 9.10691C96.5293 9.6867 96.7599 10.5665 96.7599 11.7465C96.7599 12.9162 96.5192 13.7757 96.0378 14.325C95.5563 14.8742 94.9345 15.1489 94.1722 15.1489C93.43 15.1489 92.8809 14.9607 92.5248 14.5843C92.1687 14.208 91.9807 13.674 91.9606 12.9823L91.9456 12.372C91.9355 12.1381 91.8904 11.955 91.8102 11.8227C91.7299 11.6905 91.5995 11.6244 91.419 11.6244C91.2384 11.6244 91.0805 11.7185 90.9451 11.9067C90.8097 12.0948 90.7069 12.3822 90.6367 12.7687C90.5664 13.1552 90.5313 13.6486 90.5313 14.2487V19.6193C90.5313 19.9041 90.5765 20.1304 90.6667 20.2983C90.757 20.4661 90.8974 20.5704 91.088 20.611L92.2164 20.8399C92.427 20.8704 92.5774 20.9493 92.6677 21.0764C92.758 21.2035 92.8031 21.3536 92.8031 21.5265C92.8031 21.7299 92.7404 21.8952 92.6151 22.0224ZM104.643 22.4877C106.138 22.4877 107.449 22.1775 108.578 21.557C109.706 20.9365 110.589 20.0948 111.226 19.0319C111.863 17.969 112.181 16.7662 112.181 15.4235C112.181 14.0096 111.875 12.7636 111.263 11.6854C110.651 10.6072 109.799 9.76299 108.706 9.15269C107.612 8.54239 106.334 8.23724 104.869 8.23724C103.395 8.23724 102.091 8.55256 100.957 9.1832C99.8241 9.81384 98.9364 10.6657 98.2945 11.7388C97.6526 12.8119 97.3316 14.0198 97.3316 15.3625C97.3316 16.7662 97.6376 18.002 98.2494 19.07C98.8612 20.1381 99.7163 20.9747 100.815 21.5799C101.913 22.1851 103.189 22.4877 104.643 22.4877ZM104.877 20.489C105.173 20.8246 105.476 20.962 105.787 20.9009C106.098 20.8399 106.331 20.5958 106.486 20.1686C106.642 19.7414 106.707 19.1082 106.682 18.269C106.657 17.4299 106.524 16.3644 106.283 15.0726C106.043 13.7808 105.787 12.7382 105.516 11.9448C105.245 11.1514 104.962 10.5869 104.666 10.2512C104.37 9.91556 104.067 9.77824 103.756 9.83927C103.445 9.91047 103.214 10.1597 103.064 10.5869C102.913 11.0141 102.853 11.6447 102.883 12.4788C102.913 13.3129 103.044 14.3758 103.274 15.6676C103.515 16.9594 103.768 18.002 104.034 18.7954C104.3 19.5888 104.581 20.1533 104.877 20.489ZM124.112 22.5182C124.954 22.5182 125.646 22.3631 126.188 22.0529C126.729 21.7426 127.133 21.3739 127.399 20.9467C127.665 20.5195 127.798 20.1279 127.798 19.7719C127.798 19.6193 127.765 19.4922 127.7 19.3904C127.635 19.2887 127.547 19.2379 127.437 19.2379C127.386 19.2379 127.341 19.248 127.301 19.2684C127.261 19.2887 127.226 19.3192 127.196 19.3599C127.146 19.543 127.068 19.6702 126.963 19.7414C126.857 19.8126 126.744 19.8482 126.624 19.8482C126.454 19.8482 126.326 19.7897 126.24 19.6727C126.155 19.5557 126.113 19.4006 126.113 19.2074V12.4636C126.113 11.1209 125.659 10.0808 124.751 9.3434C123.843 8.60596 122.422 8.23724 120.486 8.23724C118.981 8.23724 117.725 8.42541 116.717 8.80176C115.709 9.17812 114.952 9.65873 114.445 10.2436C113.939 10.8285 113.685 11.426 113.685 12.0363C113.685 12.6873 113.874 13.1832 114.25 13.524C114.626 13.8647 115.17 14.0351 115.882 14.0351C116.755 14.0351 117.442 13.7986 117.943 13.3256C118.445 12.8526 118.695 12.2398 118.695 11.4871V10.3275C118.695 10.0427 118.783 9.82147 118.959 9.66381C119.134 9.50615 119.352 9.42732 119.613 9.42732C119.894 9.42732 120.117 9.53158 120.283 9.7401C120.448 9.94862 120.531 10.2309 120.531 10.5869L120.531 15.0344L120.451 15.017C120.209 14.9703 119.928 14.9436 119.61 14.9369L119.448 14.9353C117.291 14.9353 115.684 15.3014 114.626 16.0338C113.568 16.7662 113.039 17.7884 113.039 19.1006C113.039 20.0974 113.402 20.9162 114.129 21.557C114.856 22.1978 115.822 22.5182 117.025 22.5182C117.928 22.5182 118.771 22.3326 119.553 21.9613C120.14 21.6829 120.616 21.3172 120.983 20.8642L121.004 20.8378L121.026 20.9061C121.142 21.2358 121.354 21.5313 121.662 21.7925L121.757 21.8698C122.314 22.3021 123.099 22.5182 124.112 22.5182ZM118.929 19.6422C119.174 19.9728 119.498 20.1381 119.899 20.1381L119.985 20.1351C120.156 20.1232 120.322 20.0755 120.482 19.992L120.531 19.9643V16.0491L120.456 16.0262C120.285 15.9804 120.085 15.9575 119.854 15.9575C119.463 15.9575 119.149 16.1406 118.914 16.5068C118.678 16.873 118.56 17.4121 118.56 18.1241C118.56 18.8056 118.683 19.3116 118.929 19.6422ZM134.718 22.564C136.504 22.564 137.873 22.1521 138.826 21.3281C139.778 20.5042 140.255 19.3803 140.255 17.9562C140.255 17.0917 140.094 16.3339 139.773 15.6829C139.452 15.0319 138.891 14.4547 138.088 13.9512C137.286 13.4477 136.158 12.9721 134.703 12.5246C134.162 12.3517 133.743 12.1762 133.447 11.9982C133.151 11.8202 132.948 11.6295 132.838 11.4261C132.727 11.2226 132.672 11.0039 132.672 10.77C132.672 10.4241 132.798 10.1444 133.048 9.93082C133.299 9.71721 133.67 9.61041 134.162 9.61041C134.844 9.61041 135.488 9.83927 136.095 10.297C136.702 10.7547 137.371 11.5379 138.103 12.6466C138.294 12.8806 138.485 13.051 138.675 13.1578C138.866 13.2646 139.046 13.2976 139.217 13.2569C139.427 13.1959 139.558 13.0561 139.608 12.8374C139.658 12.6187 139.648 12.3059 139.578 11.899L139.187 9.09166C139.147 8.79668 139.071 8.58816 138.961 8.4661C138.851 8.34404 138.705 8.28301 138.525 8.28301C138.364 8.28301 138.164 8.33895 137.923 8.45084C137.682 8.56273 137.444 8.67716 137.208 8.79414C136.973 8.91111 136.794 8.9696 136.674 8.9696C136.564 8.9696 136.401 8.90857 136.185 8.78651C135.97 8.66445 135.666 8.54239 135.275 8.42033C134.884 8.29827 134.377 8.23724 133.755 8.23724C132.722 8.23724 131.792 8.42541 130.965 8.80176C130.137 9.17812 129.485 9.71467 129.009 10.4114C128.532 11.1082 128.294 11.9397 128.294 12.906C128.294 13.7604 128.472 14.5081 128.828 15.1489C129.184 15.7897 129.728 16.339 130.461 16.7967C131.193 17.2544 132.116 17.6257 133.229 17.9105C133.951 18.1037 134.505 18.2995 134.891 18.4979C135.277 18.6962 135.543 18.9124 135.689 19.1463C135.834 19.3803 135.907 19.6397 135.907 19.9245C135.907 20.3008 135.781 20.611 135.531 20.8552C135.28 21.0993 134.899 21.2213 134.387 21.2213C133.906 21.2213 133.447 21.1171 133.011 20.9086C132.574 20.7 132.126 20.3415 131.664 19.8329C131.203 19.3243 130.686 18.6276 130.115 17.7426C129.944 17.5087 129.751 17.3459 129.535 17.2544C129.32 17.1629 129.102 17.1679 128.881 17.2697C128.67 17.351 128.535 17.524 128.475 17.7884C128.414 18.0529 128.43 18.3784 128.52 18.7649L128.986 21.8011C129.056 22.1063 129.157 22.3097 129.287 22.4114C129.417 22.5131 129.558 22.564 129.708 22.564C129.879 22.564 130.087 22.5081 130.333 22.3962L131.07 22.0605C131.316 21.9486 131.514 21.8927 131.664 21.8927C131.815 21.8927 132.013 21.9486 132.258 22.0605C132.504 22.1724 132.825 22.2843 133.221 22.3962C133.618 22.5081 134.117 22.564 134.718 22.564ZM148.981 21.9918C148.319 22.3428 147.537 22.5182 146.634 22.5182C145.109 22.5182 143.963 22.147 143.196 21.4044C142.429 20.6619 142.045 19.4922 142.045 17.8952V10.9988C142.045 10.7852 142.025 10.6225 141.985 10.5106C141.945 10.3987 141.845 10.3072 141.684 10.236L140.977 10.0071C140.806 9.92573 140.696 9.82656 140.646 9.70958C140.596 9.59261 140.571 9.44766 140.571 9.27475C140.571 9.06114 140.646 8.88568 140.796 8.74836C140.947 8.61105 141.132 8.54239 141.353 8.54239H142.09C142.181 8.54239 142.276 8.50679 142.376 8.43559C142.476 8.36438 142.612 8.22198 142.782 8.00838L145.566 5.67398C145.766 5.42986 145.967 5.24423 146.167 5.11709C146.368 4.98994 146.569 4.92637 146.769 4.92637C147 4.92637 147.181 4.99757 147.311 5.13997L147.352 5.19045C147.455 5.33311 147.507 5.54006 147.507 5.8113L147.506 8.54239H150.651C150.872 8.54239 151.042 8.5907 151.162 8.68733C151.283 8.78396 151.343 8.934 151.343 9.13743C151.343 9.42223 151.218 9.66636 150.967 9.86979L150.911 9.91182C150.658 10.0872 150.275 10.1749 149.763 10.1749H147.506L147.507 17.1323C147.507 17.8952 147.634 18.4597 147.89 18.8259C148.146 19.1921 148.52 19.3752 149.011 19.3752C149.222 19.3752 149.417 19.3294 149.598 19.2379C149.778 19.1463 149.941 19.0268 150.087 18.8793C150.232 18.7318 150.37 18.5665 150.5 18.3835C150.631 18.2004 150.756 18.0173 150.877 17.8342C150.977 17.7935 151.065 17.8113 151.14 17.8876C151.215 17.9639 151.248 18.119 151.238 18.3529C151.167 19.1768 150.939 19.9016 150.553 20.5271C150.167 21.1527 149.643 21.6409 148.981 21.9918ZM158.835 22.5182C160.109 22.5182 161.232 22.269 162.205 21.7706C163.178 21.2722 163.936 20.6085 164.477 19.7795C165.019 18.9505 165.29 18.0376 165.29 17.0408C165.29 16.8475 165.255 16.7102 165.184 16.6288C165.114 16.5475 165.029 16.5068 164.929 16.5068C164.858 16.5068 164.776 16.5297 164.68 16.5754C164.585 16.6212 164.477 16.7102 164.357 16.8425C164.146 17.4934 163.732 18.002 163.116 18.3682C162.499 18.7344 161.789 18.9175 160.987 18.9175C159.733 18.9175 158.73 18.4877 157.978 17.6282C157.537 17.1244 157.225 16.4536 157.043 15.616L157.028 15.5456H163.905C164.341 15.5456 164.682 15.4307 164.929 15.2011L164.989 15.1412C165.239 14.8717 165.365 14.503 165.365 14.0351C165.365 12.9569 165.112 11.9779 164.605 11.098C164.099 10.2182 163.374 9.52141 162.431 9.00774C161.488 8.49407 160.365 8.23724 159.061 8.23724C157.526 8.23724 156.212 8.54239 155.119 9.15269C154.026 9.76299 153.191 10.6149 152.614 11.7083C152.038 12.8018 151.749 14.0758 151.749 15.5303C151.749 16.9137 152.048 18.1317 152.644 19.1845C153.241 20.2372 154.071 21.0561 155.134 21.6409C156.197 22.2258 157.431 22.5182 158.835 22.5182ZM156.849 13.5926C156.849 13.8451 156.857 14.0884 156.871 14.3225L156.873 14.3555H159.211C159.593 14.3555 159.783 14.1419 159.783 13.7147C159.783 12.3212 159.63 11.3243 159.324 10.7242C159.018 10.1241 158.69 9.82401 158.339 9.82401C158.068 9.82401 157.822 9.93845 157.602 10.1673C157.381 10.3962 157.2 10.7852 157.06 11.3345C156.92 11.8838 156.849 12.6365 156.849 13.5926ZM174.482 22.2131C174.723 22.2131 174.906 22.1495 175.031 22.0224C175.157 21.8952 175.219 21.7299 175.219 21.5265C175.219 21.3536 175.174 21.2035 175.084 21.0764C174.994 20.9493 174.843 20.8704 174.632 20.8399L173.504 20.611C173.314 20.5704 173.173 20.4661 173.083 20.2983C172.993 20.1304 172.947 19.9041 172.947 19.6193V14.2487C172.947 13.6486 172.983 13.1552 173.053 12.7687C173.123 12.3822 173.226 12.0948 173.361 11.9067C173.497 11.7185 173.655 11.6244 173.835 11.6244C174.016 11.6244 174.146 11.6905 174.226 11.8227C174.307 11.955 174.352 12.1381 174.362 12.372L174.377 12.9823C174.397 13.674 174.585 14.208 174.941 14.5843C175.297 14.9607 175.846 15.1489 176.588 15.1489C177.351 15.1489 177.972 14.8742 178.454 14.325C178.935 13.7757 179.176 12.9162 179.176 11.7465C179.176 10.5665 178.945 9.6867 178.484 9.10691C178.023 8.52713 177.361 8.23724 176.498 8.23724C175.786 8.23724 175.129 8.45847 174.527 8.90094C173.925 9.3434 173.441 10.0198 173.075 10.9302C173.014 11.0819 172.958 11.2403 172.908 11.4055L172.881 11.4934L172.767 9.12217C172.74 8.84189 172.692 8.63795 172.621 8.51037L172.594 8.4661C172.509 8.34404 172.381 8.28301 172.21 8.28301C172.09 8.28301 171.944 8.30335 171.774 8.34404C171.603 8.38473 171.393 8.45593 171.142 8.55764L166.869 9.7935C166.629 9.88505 166.458 9.99439 166.358 10.1215C166.257 10.2487 166.207 10.3936 166.207 10.5564C166.207 10.6988 166.24 10.8158 166.305 10.9073C166.37 10.9988 166.473 11.0853 166.614 11.1667L167.005 11.2124C167.135 11.2735 167.228 11.3574 167.283 11.4642C167.338 11.571 167.366 11.7465 167.366 11.9906V19.7414C167.366 20.0465 167.341 20.2652 167.291 20.3974C167.24 20.5297 167.15 20.6263 167.02 20.6873L166.674 20.8247C166.543 20.9162 166.441 21.0154 166.365 21.1222C166.29 21.229 166.252 21.3637 166.252 21.5265C166.252 21.7401 166.315 21.9079 166.441 22.03C166.566 22.1521 166.739 22.2131 166.96 22.2131H174.482ZM190.324 21.3281C189.372 22.1521 188.002 22.564 186.217 22.564C185.615 22.564 185.116 22.5081 184.72 22.3962C184.324 22.2843 184.003 22.1724 183.757 22.0605C183.512 21.9486 183.313 21.8927 183.163 21.8927C183.013 21.8927 182.814 21.9486 182.569 22.0605L181.831 22.3962C181.586 22.5081 181.378 22.564 181.207 22.564C181.057 22.564 180.916 22.5131 180.786 22.4114C180.655 22.3097 180.555 22.1063 180.485 21.8011L180.019 18.7649C179.928 18.3784 179.913 18.0529 179.973 17.7884C180.034 17.524 180.169 17.351 180.38 17.2697C180.6 17.1679 180.818 17.1629 181.034 17.2544C181.25 17.3459 181.443 17.5087 181.613 17.7426C182.185 18.6276 182.702 19.3243 183.163 19.8329C183.624 20.3415 184.073 20.7 184.509 20.9086C184.946 21.1171 185.405 21.2213 185.886 21.2213C186.398 21.2213 186.779 21.0993 187.03 20.8552C187.28 20.611 187.406 20.3008 187.406 19.9245C187.406 19.6397 187.333 19.3803 187.187 19.1463C187.042 18.9124 186.776 18.6962 186.39 18.4979C186.004 18.2995 185.45 18.1037 184.728 17.9105C183.614 17.6257 182.692 17.2544 181.959 16.7967C181.227 16.339 180.683 15.7897 180.327 15.1489C179.971 14.5081 179.793 13.7604 179.793 12.906C179.793 11.9397 180.031 11.1082 180.508 10.4114C180.984 9.71467 181.636 9.17812 182.463 8.80176C183.291 8.42541 184.221 8.23724 185.254 8.23724C185.876 8.23724 186.383 8.29827 186.774 8.42033C187.165 8.54239 187.468 8.66445 187.684 8.78651C187.9 8.90857 188.063 8.9696 188.173 8.9696C188.293 8.9696 188.471 8.91111 188.707 8.79414C188.943 8.67716 189.181 8.56273 189.422 8.45084C189.662 8.33895 189.863 8.28301 190.023 8.28301C190.204 8.28301 190.349 8.34404 190.46 8.4661C190.57 8.58816 190.645 8.79668 190.685 9.09166L191.077 11.899C191.147 12.3059 191.157 12.6187 191.107 12.8374C191.057 13.0561 190.926 13.1959 190.716 13.2569C190.545 13.2976 190.364 13.2646 190.174 13.1578C189.983 13.051 189.793 12.8806 189.602 12.6466C188.87 11.5379 188.201 10.7547 187.594 10.297C186.987 9.83927 186.342 9.61041 185.66 9.61041C185.169 9.61041 184.798 9.71721 184.547 9.93082C184.296 10.1444 184.171 10.4241 184.171 10.77C184.171 11.0039 184.226 11.2226 184.336 11.4261C184.447 11.6295 184.65 11.8202 184.946 11.9982C185.242 12.1762 185.66 12.3517 186.202 12.5246C187.656 12.9721 188.785 13.4477 189.587 13.9512C190.39 14.4547 190.951 15.0319 191.272 15.6829C191.593 16.3339 191.754 17.0917 191.754 17.9562C191.754 19.3803 191.277 20.5042 190.324 21.3281Z" fill="white"/>
</g>
<defs>
<filter id="filter0_d_0_751" x="0.369019" y="0.410156" width="195.385" height="30.1543" filterUnits="userSpaceOnUse" color-interpolation-filters="sRGB">
<feFlood flood-opacity="0" result="BackgroundImageFix"/>
<feColorMatrix in="SourceAlpha" type="matrix" values="0 0 0 0 0 0 0 0 0 0 0 0 0 0 0 0 0 0 127 0" result="hardAlpha"/>
<feOffset dy="4"/>
<feGaussianBlur stdDeviation="2"/>
<feComposite in2="hardAlpha" operator="out"/>
<feColorMatrix type="matrix" values="0 0 0 0 0 0 0 0 0 0 0 0 0 0 0 0 0 0 0.25 0"/>
<feBlend mode="normal" in2="BackgroundImageFix" result="effect1_dropShadow_0_751"/>
<feBlend mode="normal" in="SourceGraphic" in2="effect1_dropShadow_0_751" result="shape"/>
</filter>
</defs>
</svg>
